<?xml version="1.0" encoding="utf-8"?>
<!-- Generator: Adobe Illustrator 24.0.1, SVG Export Plug-In . SVG Version: 6.00 Build 0)  -->
<svg version="1.1" id="Layer_1" xmlns="http://www.w3.org/2000/svg" xmlns:xlink="http://www.w3.org/1999/xlink" x="0px" y="0px"
	 viewBox="0 0 324 126" style="enable-background:new 0 0 324 126;" xml:space="preserve">
<style type="text/css">
	.st0{fill:#F2EEE4;}
</style>
<g>
	<path class="st0" d="M23.05,99.98c3.25-5.08,4.06-8.13,4.06-15.04V41.05c0-6.81-0.92-9.96-4.06-15.04v-0.2h16.46v0.2
		c-3.35,5.28-4.06,8.03-4.06,15.04v57.61l18.39-0.71c7.62-0.41,13.41-6.91,19.1-16.26l0.81,0.3l-4.57,18.19H23.05V99.98z"/>
	<path class="st0" d="M79.85,76.01V41.26c0-7.21-0.81-9.75-4.06-15.24v-0.2h16.46v0.2c-2.74,4.37-4.06,8.23-4.06,15.24V75.7
		c0,17.48,9.14,23.67,21.23,23.67c16.36,0,21.54-11.68,21.54-24.59v-32c0-7.62-1.32-10.77-7.31-16.76v-0.2h16.15l0.2,0.2
		c-5.38,5.99-6.81,9.14-6.81,16.76v31.9c0,14.53-6.3,27.03-25.6,27.03C92.55,101.71,79.85,94.29,79.85,76.01z"/>
	<path class="st0" d="M179.83,101.71c-23.37,0-37.69-17.07-37.69-38.81c0-21.64,15.95-38.61,39.93-38.61
		c10.26,0,19.91,2.84,24.99,4.98l2.03,15.44l-0.81,0.2c-8.13-13.21-15.55-18.59-27.03-18.59c-20.42,0-29.57,15.75-29.57,36.58
		c0,21.03,8.84,36.78,28.35,36.78c14.94,0,22.45-8.84,28.65-22.86l0.81,0.3l-2.03,16.97C204.52,96.22,193.04,101.71,179.83,101.71z"
		/>
	<path class="st0" d="M221.7,84.95V41.05c0-6.91-0.81-9.86-4.06-15.04v-0.2h16.46v0.2c-3.35,5.28-4.06,8.03-4.06,15.04v43.89
		c0,7.01,0.71,9.75,4.06,15.04v0.2h-16.46v-0.2C220.99,94.7,221.7,91.96,221.7,84.95z"/>
	<path class="st0" d="M237.35,100.19v-0.2c4.37-4.37,5.39-7.42,8.13-14.53l22.45-60.56h2.44l22.76,61.57
		c2.95,8.13,4.37,10.57,7.82,13.51v0.2h-16.16v-0.2c1.52-2.34,2.13-7.01-0.41-13.92l-5.08-13.92h-26.52l-4.17,11.38
		c-3.35,9.04-1.12,13.72,1.12,16.46v0.2H237.35z M253.6,70.11h25l-12.4-34.24L253.6,70.11z"/>
</g>
</svg>
