<?xml version="1.0" encoding="utf-8"?>
<!-- Generator: Adobe Illustrator 24.0.1, SVG Export Plug-In . SVG Version: 6.00 Build 0)  -->
<svg version="1.1" id="Layer_1" xmlns="http://www.w3.org/2000/svg" xmlns:xlink="http://www.w3.org/1999/xlink" x="0px" y="0px"
	 viewBox="0 0 384.8 107.4" style="enable-background:new 0 0 384.8 107.4;" xml:space="preserve">
<style type="text/css">
	.st0{fill:url(#SVGID_1_);}
</style>
<title>Asset 1</title>
<linearGradient id="SVGID_1_" gradientUnits="userSpaceOnUse" x1="17.115" y1="53.695" x2="367.665" y2="53.695">
	<stop  offset="0" style="stop-color:#C49D53"/>
	<stop  offset="5.845864e-02" style="stop-color:#E1BA66"/>
	<stop  offset="0.1596" style="stop-color:#FAE88D"/>
	<stop  offset="0.4468" style="stop-color:#D3AC5B"/>
	<stop  offset="0.4656" style="stop-color:#D6B15F"/>
	<stop  offset="0.6601" style="stop-color:#A1762B"/>
	<stop  offset="0.8412" style="stop-color:#BD9750"/>
	<stop  offset="0.9913" style="stop-color:#DBB35F"/>
</linearGradient>
<path class="st0" d="M17.1,6.7V7c4,6.4,5.1,10.4,5.1,19v55.4c0,8.7-1,12.5-5.1,19v0.2h58.2l5.8-22.9l-1-0.4
	C72.9,89,65.6,97.2,56,97.7l-23.2,0.9V25.9c0-8.9,0.9-12.3,5.1-19V6.7L17.1,6.7z M144,6.7V7c7.6,7.6,9.2,11.5,9.2,21.1v40.4
	c0,16.3-6.5,31-27.2,31c-15.2,0-26.8-7.8-26.8-29.9V26.2c0-8.9,1.7-13.7,5.1-19.2V6.7H83.6V7c4.1,6.9,5.1,10.1,5.1,19.2V70
	c0,23.1,16,32.4,35,32.4c24.3,0,32.3-15.8,32.3-34.1V28.1c0-9.6,1.8-13.6,8.6-21.1l-0.2-0.2H144z M262.5,6.7V7
	c4.1,6.5,5.1,10.2,5.1,19v55.4c0,8.8-0.9,12.3-5.1,19v0.2h20.8v-0.2c-4.2-6.7-5.1-10.1-5.1-19V25.9c0-8.9,0.9-12.3,5.1-19V6.7
	L262.5,6.7z M323.8,19.4l15.6,43.2h-31.5L323.8,19.4z M326,5.5l-28.3,76.4c-3.5,9-4.8,12.8-10.2,18.3v0.3H303v-0.2
	c-2.8-3.5-5.6-9.4-1.4-20.8l5.3-14.3h33.5l6.4,17.6c3.2,8.7,2.4,14.6,0.5,17.6v0.2h20.4v-0.2c-4.4-3.7-6.1-6.8-9.9-17.1L329,5.5H326
	z M167.4,53.5c0,27.4,18.1,49,47.6,49c16.6,0,31.1-6.9,34.8-9.6l2.6-21.4l-1-0.4C243.5,88.8,234,100,215.2,100
	c-24.6,0-35.8-19.9-35.8-46.4c0-26.3,11.5-46.1,37.3-46.1c14.5,0,23.8,6.8,34.1,23.4l1-0.2l-2.6-19.5c-10-4-20.7-6.2-31.5-6.3
	C187.5,4.9,167.4,26.3,167.4,53.5"/>
</svg>
