<?xml version="1.0" encoding="utf-8"?>
<!-- Generator: Adobe Illustrator 24.0.1, SVG Export Plug-In . SVG Version: 6.00 Build 0)  -->
<svg version="1.1" id="Layer_1" xmlns="http://www.w3.org/2000/svg" xmlns:xlink="http://www.w3.org/1999/xlink" x="0px" y="0px"
	 viewBox="0 0 126 126" style="enable-background:new 0 0 126 126;" xml:space="preserve">
<style type="text/css">
	.st0{fill:#692628;}
</style>
<g>
	<g>
		<path class="st0" d="M23.85,84.94l1.61,2.64l-0.92,0.56l-6.53,1.94l-0.51-0.84l6.64-1.97l0.14-0.09l-1.12-1.83L23.85,84.94z"/>
		<path class="st0" d="M22.16,92.93l3.01-2.39c0.89-0.71,1.92-0.78,2.69,0.19c0.77,0.97,0.46,1.95-0.43,2.66l-3.01,2.39
			c-0.89,0.7-1.92,0.78-2.69-0.19C20.96,94.62,21.27,93.63,22.16,92.93z M23.68,95.1l3.26-2.58c0.45-0.36,0.63-0.82,0.28-1.27
			c-0.36-0.45-0.85-0.38-1.3-0.02l-3.26,2.58c-0.45,0.36-0.63,0.82-0.28,1.27C22.73,95.53,23.23,95.46,23.68,95.1z"/>
		<path class="st0" d="M30.33,93.79l2.2,2.17l-0.75,0.76l-5.86,3.46l-0.7-0.69l5.95-3.51l0.12-0.12l-1.53-1.51L30.33,93.79z"/>
		<path class="st0" d="M30.68,101.98l2.34-3.04c0.7-0.9,1.67-1.22,2.65-0.46c0.98,0.76,0.92,1.78,0.23,2.68l-2.34,3.04
			c-0.69,0.89-1.67,1.22-2.65,0.46C29.92,103.9,29.99,102.87,30.68,101.98z M32.67,103.72l2.54-3.29c0.35-0.46,0.42-0.95-0.04-1.3
			c-0.46-0.35-0.91-0.16-1.27,0.29l-2.54,3.29c-0.35,0.46-0.42,0.95,0.04,1.3C31.86,104.36,32.32,104.17,32.67,103.72z"/>
		<path class="st0" d="M40.39,105.93l1.51,0.81l-1.87,3.53l-0.67-0.35l0.35-0.67c-0.37,0.35-0.84,0.5-1.47,0.17
			c-1-0.53-1.03-1.53-0.5-2.52l1.8-3.39c0.53-1,1.42-1.5,2.56-0.89c1.21,0.64,1.21,1.48,0.69,2.45l-0.32,0.6l-0.82-0.43l0.35-0.66
			c0.28-0.53,0.28-0.93-0.27-1.22c-0.54-0.29-0.98-0.02-1.24,0.49l-1.94,3.65c-0.27,0.51-0.27,1.01,0.26,1.29
			c0.51,0.27,0.9,0.07,1.18-0.46l0.7-1.33l-0.68-0.36L40.39,105.93z"/>
		<path class="st0" d="M45.27,108.51l-1.29,3.45l-0.93-0.35l2.69-7.18l1.6,0.6c1.12,0.42,1.36,1.14,1.01,2.08l-0.37,0.98
			c-0.31,0.83-0.84,1.17-1.72,0.96l0.18,3.82l-1-0.37L45.27,108.51z M46.38,105.54l-0.94,2.5l0.56,0.21
			c0.51,0.19,0.84,0.02,1.01-0.43l0.41-1.09c0.17-0.47,0.03-0.79-0.48-0.98L46.38,105.54z"/>
		<path class="st0" d="M49.29,113.74l3.14-7.13l1.13,0.26l-0.25,7.79l-0.99-0.23l0.07-1.63l-1.55-0.35l-0.63,1.5L49.29,113.74z
			 M51.17,111.69l1.27,0.29l0.17-3.65l-0.01,0L51.17,111.69z"/>
		<path class="st0" d="M57.73,109.77l-0.5,5.43l-0.84-0.08l0.7-7.63l0.99,0.09l1.2,5.25l0.47-5.1l0.84,0.08l-0.7,7.63L59,115.36
			L57.73,109.77z"/>
		<path class="st0" d="M64.66,107.83c1.34-0.05,1.85,0.79,1.89,1.92l0.14,3.68c0.04,1.12-0.4,2-1.74,2.05l-1.8,0.07l-0.28-7.65
			L64.66,107.83z M64.1,114.69l0.69-0.03c0.7-0.03,0.93-0.46,0.91-1.04l-0.15-4.03c-0.02-0.56-0.29-0.98-0.98-0.96l-0.69,0.03
			L64.1,114.69z"/>
		<path class="st0" d="M73.07,110.47l1.68-0.35l0.82,3.91l-0.74,0.15l-0.15-0.74c-0.06,0.51-0.33,0.92-1.02,1.07
			c-1.11,0.23-1.77-0.52-2-1.61l-0.79-3.76c-0.23-1.11,0.13-2.06,1.39-2.32c1.34-0.28,1.88,0.37,2.1,1.44l0.14,0.66l-0.91,0.19
			l-0.15-0.73c-0.12-0.59-0.38-0.89-0.99-0.76c-0.6,0.12-0.76,0.61-0.64,1.17l0.85,4.05c0.12,0.56,0.44,0.95,1.03,0.82
			c0.56-0.12,0.73-0.52,0.61-1.11l-0.31-1.47l-0.75,0.16L73.07,110.47z"/>
		<path class="st0" d="M78.58,113.2l-1.16-7.71l1.1-0.39l3.96,6.71l-0.96,0.34l-0.81-1.41l-1.5,0.53l0.27,1.6L78.58,113.2z
			 M79.07,110.47l1.22-0.43l-1.81-3.18l-0.01,0L79.07,110.47z"/>
		<path class="st0" d="M81.36,103.97l2.95-1.46l0.36,0.73l-1.02,0.51l3.03,6.13l-0.9,0.45l-3.03-6.13l-1.03,0.51L81.36,103.97z"/>
		<path class="st0" d="M86.19,101.42l2.47-1.61l0.44,0.68l-1.64,1.07l1.39,2.14l1.18-0.77l0.44,0.67l-1.18,0.77l1.46,2.25l1.64-1.06
			l0.44,0.68l-2.48,1.61L86.19,101.42z"/>
		<path class="st0" d="M95.4,97.35l3.02,4.42l-0.71,0.67l-6.01-4.86l0.71-0.67l4.25,3.5l0.01-0.01l-3.16-4.52l0.61-0.57l4.34,3.4
			l0.01-0.01l-3.23-4.44l0.62-0.58l4.52,6.27l-0.71,0.67L95.4,97.35L95.4,97.35z"/>
		<path class="st0" d="M102.83,97.28l-5.07-5.93l0.72-0.91l6.92,3.61l-0.63,0.8l-1.44-0.77l-0.99,1.25l1.08,1.22L102.83,97.28z
			 M101.8,94.7l0.81-1.02l-3.22-1.74l-0.01,0.01L101.8,94.7z"/>
		<path class="st0" d="M105.52,88.54l2.48,1.53l-0.52,0.85L105,89.39l-4.8-1.27l0.54-0.88l3.33,0.95l0-0.01l-2.35-2.54l0.5-0.82
			L105.52,88.54z"/>
	</g>
	<g>
		<g>
			<path class="st0" d="M15.79,77.73l-0.43-1.45l1.45-0.43l0.43,1.45L15.79,77.73z"/>
			<path class="st0" d="M17.6,63.11c0.04,2.18-1.26,3.09-1.26,3.09l-0.9-1.02c0,0,0.81-0.78,0.79-2.05
				c-0.01-0.86-0.21-1.4-0.63-1.39c-0.41,0.01-0.51,0.45-0.54,0.98l-0.07,1.07c-0.09,1.34-0.69,2.27-1.88,2.29
				c-1.2,0.02-2.03-1.03-2.05-2.58c-0.03-1.98,1.24-2.86,1.24-2.86l0.85,1.05c0,0-0.73,0.57-0.71,1.79
				c0.01,0.83,0.25,1.22,0.62,1.21c0.32-0.01,0.49-0.31,0.53-0.88l0.07-1.07c0.09-1.38,0.62-2.4,1.86-2.42
				C16.74,60.3,17.57,61.38,17.6,63.11z"/>
			<path class="st0" d="M13.88,51.27l-0.37,2.05l4.76,0.86l-0.24,1.36l-4.76-0.86l-0.37,2.05l-1.36-0.24l0.98-5.45L13.88,51.27z"/>
			<path class="st0" d="M20.97,45.29l-2.4,0.26l-0.65,1.71l2.01,0.77l-0.49,1.29l-5.81-2.22l1.21-3.16c0.53-1.39,1.69-1.77,2.7-1.38
				c0.7,0.27,1.21,0.85,1.29,1.65l2.71-0.36L20.97,45.29z M17.37,44.82c0.19-0.5,0.05-0.85-0.32-0.99
				c-0.37-0.14-0.72,0.02-0.91,0.52L15.4,46.3l1.23,0.47L17.37,44.82z"/>
			<path class="st0" d="M25.89,36.4l-2.93,4.66l-5.26-3.31l2.91-4.62l1.16,0.73l-2.17,3.45l0.89,0.56l2.15-3.42l1.16,0.73
				l-2.15,3.42l0.89,0.56l2.2-3.49L25.89,36.4z"/>
			<path class="st0" d="M30.67,30.86l-5.33-1.58l3.57,3.42l-0.95,0.99l-4.48-4.29l1.54-1.61l5.39,1.6l-3.61-3.46l0.95-0.99
				l4.48,4.29L30.67,30.86z"/>
			<path class="st0" d="M38.53,23.93c-0.11,0.53-0.47,1.13-1.08,1.54c-1.49,1.01-3.4,0.72-4.5-0.91c-1.1-1.62-0.65-3.53,0.84-4.55
				c1.09-0.75,2.39-0.86,3.54-0.1l-0.75,1.17c-0.64-0.37-1.34-0.39-2.01,0.07c-0.92,0.62-1.1,1.74-0.49,2.64
				c0.64,0.94,1.72,1.14,2.64,0.51c0.71-0.48,0.9-1.13,0.84-1.75l-1.36,0.93l-0.72-1.06l2.41-1.64l1.95,2.86l-1.03,0.7L38.53,23.93z
				"/>
			<path class="st0" d="M45.41,15.66L43.5,16.5l1.93,4.43l-1.26,0.55l-1.93-4.43l-1.9,0.83l-0.55-1.26l5.07-2.21L45.41,15.66z"/>
			<path class="st0" d="M54.64,18.16l-0.52-2.37l-3.03,0.67l0.52,2.37l-1.34,0.3l-1.34-6.07l1.34-0.3l0.52,2.37l3.03-0.67
				l-0.52-2.37l1.34-0.3l1.34,6.07L54.64,18.16z"/>
			<path class="st0" d="M70.21,17.95l-0.39-1.47l-2.85-0.33l-0.71,1.35l-1.5-0.17l3.09-5.9l2.19,0.25l1.67,6.44L70.21,17.95z
				 M67.65,14.84l1.81,0.21l-0.63-2.49L67.65,14.84z"/>
			<path class="st0" d="M78.31,20.05l-0.84-5.51l-1.58,4.7l-1.3-0.44l1.98-5.89l2.12,0.71l0.84,5.57l1.6-4.75l1.31,0.44l-1.98,5.89
				L78.31,20.05z"/>
			<path class="st0" d="M83.65,22.26l3.15-5.36l2.54,1.5c1.02,0.6,2.26,2.16,1.05,4.23c-1.21,2.06-3.26,1.69-4.28,1.09L83.65,22.26z
				 M89.21,21.92c0.51-0.87,0.27-1.85-0.61-2.37l-1.3-0.77l-1.76,2.99l1.3,0.76C87.71,23.05,88.69,22.79,89.21,21.92z"/>
			<path class="st0" d="M97.33,33.3c-1.43-1.65-1.02-3.18-1.02-3.18l1.35,0.2c0,0-0.12,1.12,0.71,2.08
				c0.56,0.65,1.06,0.94,1.38,0.66c0.31-0.27,0.1-0.67-0.22-1.1l-0.63-0.86c-0.79-1.09-0.93-2.18-0.03-2.96
				c0.9-0.78,2.22-0.52,3.23,0.66c1.3,1.49,0.89,2.99,0.89,2.99l-1.33-0.26c0,0,0.2-0.91-0.6-1.83c-0.55-0.63-0.98-0.77-1.26-0.53
				c-0.24,0.21-0.18,0.55,0.16,1.01l0.63,0.86c0.82,1.12,1.07,2.24,0.14,3.05C99.8,34.9,98.46,34.6,97.33,33.3z"/>
			<path class="st0" d="M107.91,39.89l-1.06-1.8l-4.17,2.46l-0.7-1.19l4.17-2.46l-1.05-1.79l1.19-0.7l2.81,4.78L107.91,39.89z"/>
			<path class="st0" d="M106.08,48.07l-0.47-1.29l1.86-0.68l3.2-3.6l0.53,1.46l-2.14,2.3l3.12,0.39l0.53,1.46l-4.77-0.72
				L106.08,48.07z"/>
			<path class="st0" d="M108.38,58.03l-0.8-4.82l6.14-1.02l0.23,1.36l-4.78,0.79l0.58,3.46L108.38,58.03z"/>
			<path class="st0" d="M108.51,66.69l0.11-5.5l6.2,0.12l-0.11,5.45l-1.37-0.03l0.08-4.08l-1.04-0.02l-0.08,4.03l-1.36-0.03
				l0.08-4.03l-1.04-0.02l-0.08,4.12L108.51,66.69z"/>
			<path class="st0" d="M110.42,77.06l-0.45,1.44l-1.44-0.45l0.45-1.44L110.42,77.06z"/>
		</g>
		<path class="st0" d="M63,119.59C31.79,119.59,6.41,94.21,6.41,63S31.79,6.41,63,6.41S119.59,31.79,119.59,63
			S94.21,119.59,63,119.59z M63,7.21C32.24,7.21,7.21,32.24,7.21,63c0,30.76,25.03,55.79,55.79,55.79S118.79,93.76,118.79,63
			C118.79,32.24,93.76,7.21,63,7.21z"/>
	</g>
</g>
</svg>
