<?xml version="1.0" encoding="utf-8"?>
<!-- Generator: Adobe Illustrator 24.0.1, SVG Export Plug-In . SVG Version: 6.00 Build 0)  -->
<svg version="1.1" id="Layer_1" xmlns="http://www.w3.org/2000/svg" xmlns:xlink="http://www.w3.org/1999/xlink" x="0px" y="0px"
	 viewBox="0 0 108.7 102.4" style="enable-background:new 0 0 108.7 102.4;" xml:space="preserve">
<style type="text/css">
	.st0{fill:#FFFFFF;}
</style>
<title>s</title>
<g>
	<path class="st0" d="M99.4,50.8l3.5-1.2l-3.5-1.2c-5-1.7-10.1-3.1-15.3-4.2l-0.6-0.1l0.5-0.3c4.4-3,8.5-6.2,12.5-9.7l2.7-2.5
		l-3.7,0.2c-5.3,0.3-10.5,1-15.7,2l-0.6,0.1l0.3-0.5c2.9-4.4,5.5-9,7.8-13.8l1.6-3.3l-3.3,1.6c-4.8,2.3-9.4,4.9-13.8,7.8L71.3,26
		l0.1-0.6c1-5.2,1.6-10.4,2-15.7L73.6,6l-2.5,2.7c-3.5,3.9-6.7,8.1-9.7,12.5l-0.3,0.5L61,21.1c-1-5.2-2.4-10.3-4.2-15.3l-1.2-3.5
		l-1.2,3.5c-1.8,5-3.2,10.1-4.2,15.3l-0.1,0.6l-0.3-0.5c-3-4.3-6.2-8.5-9.7-12.4L37.6,6l0.2,3.7c0.3,5.3,1,10.5,2,15.7l0.1,0.6
		l-0.5-0.3c-4.4-2.9-9-5.5-13.8-7.8l-3.3-1.6l1.6,3.3c2.3,4.8,4.9,9.4,7.8,13.8l0.3,0.5l-0.6-0.1c-5.2-1-10.4-1.7-15.7-2l-3.6-0.2
		l2.7,2.5c3.9,3.5,8.1,6.8,12.5,9.7l0.5,0.3l-0.6,0.1c-5.2,1.1-10.3,2.5-15.3,4.2l-3.5,1.2l3.5,1.2c5,1.7,10.1,3.1,15.3,4.2l0.6,0.1
		l-0.5,0.3c-4.4,3-8.5,6.2-12.5,9.7l-2.7,2.6l3.7-0.2c5.3-0.3,10.5-1,15.7-2l0.6-0.1l-0.3,0.5c-2.9,4.4-5.5,9-7.8,13.8L22.3,83
		l3.3-1.6c4.8-2.3,9.4-4.9,13.8-7.8l0.5-0.3l-0.1,0.6c-1,5.2-1.6,10.4-2,15.7l-0.2,3.7l2.5-2.7c3.5-3.9,6.8-8.1,9.7-12.5l0.3-0.5
		l0.1,0.6c1,5.2,2.4,10.3,4.2,15.3l1.2,3.5l1.2-3.5c1.7-5,3.1-10.1,4.2-15.3l0.1-0.6l0.3,0.5c3,4.4,6.2,8.5,9.7,12.5l2.5,2.7
		l-0.2-3.7c-0.3-5.3-1-10.5-2-15.7l-0.1-0.6l0.5,0.3c4.4,2.9,9,5.5,13.8,7.8l3.5,1.6l-1.6-3.3c-2.3-4.8-4.9-9.4-7.8-13.8l-0.3-0.5
		l0.6,0.1c5.2,1,10.4,1.7,15.7,2l3.7,0.2l-2.7-2.5c-4-3.5-8.2-6.7-12.5-9.7l-0.5-0.3l0.4-0.2C89.3,53.9,94.4,52.5,99.4,50.8z
		 M90.9,34.8l0.8-0.1l-0.6,0.5c-3.6,3-7.5,5.8-11.5,8.2h-0.2c-2.9-0.4-5.9-0.4-8.8,0.2l-1.5,0.3l1.3-0.8c1.3-0.8,2.6-1.8,3.6-3
		c1-1,1.9-2,2.7-3.1v-0.1h0.1C81.5,35.9,86.2,35.2,90.9,34.8z M82.6,22.4l0.7-0.4l-0.4,0.7c-2.2,4.2-4.7,8.2-7.5,12v0.1h-0.1
		c-1.3,0.3-2.6,0.8-3.9,1.3c-1.4,0.6-2.8,1.3-4.1,2.2l-1.2,0.9L67,38c0.9-1.3,1.7-2.6,2.2-4.1c0.4-1.1,0.9-2.4,1.3-3.9v-0.1h0.1
		C74.4,27.1,78.4,24.6,82.6,22.4z M61.7,34.6c0.3-1.5,0.5-3.1,0.5-4.7c0-1.4-0.1-2.7-0.3-4.1v-0.2c2.5-4,5.2-7.9,8.2-11.5l0.5-0.7
		l-0.1,0.8c-0.4,4.7-1.2,9.3-2.3,13.9v0.1h-0.1c-1.2,1-2.2,1.8-3.1,2.7c-1.1,1.1-2.1,2.3-3,3.6l-0.8,1.3L61.7,34.6z M52.2,25.1
		c0.8-4.7,1.8-9.3,3.2-13.8l0.2-0.8l0.2,0.8c1.4,4.5,2.4,9.1,3.2,13.7v0.2c-0.7,1.2-1.3,2.4-1.8,3.7c-0.6,1.4-1.1,2.9-1.3,4.5
		l-0.2,1.5l-0.2-1.5c-0.3-1.6-0.7-3.1-1.4-4.5C53.6,27.6,53,26.4,52.2,25.1L52.2,25.1L52.2,25.1z M41.3,14.2c3,3.6,5.8,7.5,8.2,11.5
		v0.2c-0.2,1.4-0.3,2.7-0.3,4.1c0,1.6,0.2,3.2,0.5,4.7l0.3,1.5l-0.8-1.3c-0.8-1.3-1.8-2.6-3-3.6c-0.8-0.8-1.9-1.7-3.1-2.7H43v-0.1
		c-1.1-4.6-1.8-9.2-2.3-13.9l-0.1-0.8L41.3,14.2z M28.4,22.7L28.1,22l0.7,0.4c4.2,2.2,8.2,4.7,12,7.5h0.1V30
		c0.3,1.3,0.8,2.6,1.3,3.9c0.6,1.4,1.3,2.8,2.2,4.1l0.9,1.2l-1.2-0.8c-1.3-0.9-2.7-1.7-4.1-2.2c-1.3-0.5-2.6-1-3.9-1.3H36v-0.1
		C33.2,31,30.7,26.9,28.4,22.7z M20.2,35.2l-0.7-0.5l0.9,0.1c4.7,0.4,9.3,1.2,13.9,2.3h0.1v0.1c1,1.2,1.8,2.2,2.7,3.1
		c1.1,1.1,2.3,2.1,3.6,3l1.4,0.7l-1.5-0.3c-1.5-0.3-3.1-0.5-4.7-0.5c-1.4,0-2.7,0.1-4.1,0.3h-0.2C27.7,41,23.9,38.2,20.2,35.2z
		 M17.4,49.9l-0.8-0.2l0.8-0.2c4.5-1.4,9.1-2.5,13.8-3.2h0.2c1.2,0.7,2.4,1.3,3.7,1.8c1.4,0.6,2.9,1.1,4.5,1.3l1.5,0.2l-1.5,0.3
		c-1.5,0.3-3,0.7-4.5,1.3c-1.3,0.5-2.5,1.1-3.7,1.8h-0.2C26.6,52.3,21.9,51.3,17.4,49.9z M20.4,64.5l-0.8,0.1l0.6-0.5
		c3.6-3,7.5-5.8,11.5-8.2h0.2c2.9,0.4,5.9,0.4,8.8-0.2l1.5-0.3L40.8,56c-1.3,0.8-2.6,1.8-3.6,3c-0.9,0.9-1.7,1.9-2.7,3.1v0.1h-0.1
		C29.8,63.3,25.1,64.1,20.4,64.5z M28.8,76.9l-0.7,0.4l0.4-0.7c2.2-4.2,4.7-8.2,7.5-12v-0.1h0.1c1.3-0.3,2.6-0.8,3.9-1.3
		c1.4-0.6,2.8-1.3,4.1-2.2l1.2-0.9l-0.9,1.2c-0.9,1.3-1.7,2.6-2.2,4.1c-0.5,1.3-1,2.6-1.3,3.9v0.1h-0.1C37,72.2,33,74.7,28.8,76.9z
		 M49.7,64.7c-0.3,1.5-0.5,3.1-0.5,4.7c0,1.4,0.1,2.7,0.3,4.1v0.2c-2.5,4-5.2,7.9-8.2,11.5l-0.5,0.7l0.1-0.8
		c0.4-4.7,1.2-9.3,2.3-13.9v-0.1h0.1c1.2-1,2.2-1.8,3.1-2.7c1.1-1.1,2.1-2.3,3-3.6l0.8-1.3L49.7,64.7z M55.9,87.8l-0.2,0.8l-0.2-0.8
		c-1.4-4.5-2.5-9.1-3.2-13.8v-0.2c0.7-1.2,1.3-2.4,1.8-3.7c0.6-1.4,1.1-2.9,1.3-4.5l0.2-1.5l0.3,1.5c0.3,1.5,0.7,3,1.3,4.5
		c0.5,1.3,1.1,2.5,1.8,3.7l0.1,0.3h0C58.4,78.7,57.3,83.3,55.9,87.8z M55.7,62.7c-7.2,0-13.1-5.9-13.1-13.1s5.9-13.1,13.1-13.1
		s13.1,5.9,13.1,13.1C68.8,56.8,63,62.7,55.7,62.7z M70.1,85.1c-3-3.6-5.8-7.5-8.2-11.5v-0.2c0.2-1.4,0.3-2.7,0.3-4.1
		c0-1.6-0.2-3.2-0.5-4.7l-0.3-1.5l0.8,1.3c0.8,1.3,1.8,2.6,3,3.6c1,1,2,1.9,3.1,2.7h0.1v0.1c1.1,4.6,1.8,9.2,2.3,13.9l0.1,0.8
		L70.1,85.1z M82.9,76.5l0.4,0.7l-0.7-0.4c-4.2-2.2-8.2-4.7-12-7.5h-0.1v-0.1c-0.4-1.5-0.9-2.8-1.3-3.9c-0.6-1.4-1.3-2.8-2.2-4.1
		L66.1,60l1.2,0.9c1.3,0.9,2.6,1.7,4.1,2.2c1.3,0.5,2.6,1,3.9,1.3h0.1v0.1C78.2,68.3,80.7,72.3,82.9,76.5z M91.1,64l0.7,0.5L91,64.4
		c-4.7-0.4-9.3-1.2-13.9-2.3H77V62c-1-1.2-1.9-2.2-2.7-3.1c-1.1-1.1-2.3-2.1-3.6-3l-1.3-0.8l1.5,0.3c2.9,0.6,5.9,0.7,8.8,0.2h0.2
		C83.8,58.3,88.2,61.6,91.1,64z M80.2,53.1H80c-1.2-0.7-2.4-1.3-3.7-1.8c-1.4-0.6-2.9-1.1-4.5-1.3l-1.5-0.2l1.5-0.3
		c1.5-0.3,3-0.7,4.5-1.3c1.3-0.5,2.5-1.1,3.7-1.8h0.2c4.7,0.8,9.3,1.8,13.8,3.2l0.8,0.2L94,49.9C89.5,51.3,84.9,52.4,80.2,53.1z"/>
	<polygon class="st0" points="51.5,56.4 63.2,49.7 51.5,43.1 	"/>
</g>
</svg>
