<svg xmlns="http://www.w3.org/2000/svg" xmlns:xlink="http://www.w3.org/1999/xlink" viewBox="0 0 2213.57 108.05"><defs><style>.cls-1,.cls-4{fill:none;}.cls-2{clip-path:url(#clip-path);}.cls-3{fill:#c19c7c;}.cls-4{stroke:#c19c7c;stroke-miterlimit:10;stroke-width:0.82px;}.cls-5{fill:url(#Lucia);}</style><clipPath id="clip-path"><rect class="cls-1" width="80.28" height="80.28"/></clipPath><pattern id="Lucia" data-name="Lucia" width="80.28" height="80.28" patternTransform="matrix(1.08, 0, 0, -1.08, 1142.73, 18293)" patternUnits="userSpaceOnUse" viewBox="0 0 80.28 80.28"><rect class="cls-1" width="80.28" height="80.28"/><g class="cls-2"><path class="cls-3" d="M40.14,42.68a2.54,2.54,0,1,1,2.54-2.54,2.54,2.54,0,0,1-2.54,2.54"/><path class="cls-3" d="M57.91,33.36l1.19-1.08-1.6.09a55.51,55.51,0,0,0-6.84.86l-.26.05.15-.22a53.15,53.15,0,0,0,3.41-6l.7-1.45-1.45.7a54,54,0,0,0-6,3.41l-.23.15.06-.26a54.54,54.54,0,0,0,.86-6.84L48,21.17l-1.08,1.2a53.9,53.9,0,0,0-4.22,5.44l-.15.23-.06-.27a53.53,53.53,0,0,0-1.82-6.65l-.53-1.51-.54,1.52a55.48,55.48,0,0,0-1.82,6.64l-.05.27-.15-.23a55.22,55.22,0,0,0-4.22-5.44l-1.08-1.2.09,1.61a54.33,54.33,0,0,0,.86,6.84l.06.26-.23-.15a54,54,0,0,0-6-3.41l-1.45-.7.7,1.45a54.18,54.18,0,0,0,3.41,6l.15.22-.26-.05a55.28,55.28,0,0,0-6.84-.86l-1.6-.09,1.19,1.08a53.91,53.91,0,0,0,5.44,4.22l.23.15-.27.05a53.17,53.17,0,0,0-6.64,1.83l-1.52.53,1.52.53a52.93,52.93,0,0,0,6.64,1.82l.27.06-.23.15a56.56,56.56,0,0,0-5.44,4.22L21.18,48l1.6-.08a55.28,55.28,0,0,0,6.84-.86l.26-.06-.15.23a52.39,52.39,0,0,0-3.41,6l-.7,1.44L27.07,54a54,54,0,0,0,6-3.41l.23-.15-.06.26a54.33,54.33,0,0,0-.86,6.84l-.09,1.6,1.08-1.19a54.57,54.57,0,0,0,4.22-5.45l.15-.22.05.26a53.34,53.34,0,0,0,1.83,6.65l.53,1.52.53-1.52a53,53,0,0,0,1.82-6.65l.06-.26.15.22a54.68,54.68,0,0,0,4.22,5.45L48,59.1l-.09-1.6a54.54,54.54,0,0,0-.86-6.84L47,50.4l.23.15a54,54,0,0,0,6,3.41l1.45.69L54,53.2a54.3,54.3,0,0,0-3.41-6L50.4,47l.26.06a55.51,55.51,0,0,0,6.84.86l1.6.08-1.19-1.07a54,54,0,0,0-5.45-4.22l-.22-.15.26-.06a52.41,52.41,0,0,0,6.65-1.82l1.52-.53-1.52-.53a53.07,53.07,0,0,0-6.65-1.83l-.26-.05.22-.15a56.09,56.09,0,0,0,5.45-4.22M50.8,41.64h-.07a12.26,12.26,0,0,0-1.59-.79,9.12,9.12,0,0,0-2-.59l-.66-.11.66-.11a9.12,9.12,0,0,0,2-.59,13.67,13.67,0,0,0,1.59-.79l0,0h0a43.47,43.47,0,0,1,6,1.39l.36.11-.36.11a43.47,43.47,0,0,1-6,1.39m-1.39,4h0l0,0a14.39,14.39,0,0,0-1.16-1.34,9.38,9.38,0,0,0-1.59-1.3L46,42.58l.64.15a11,11,0,0,0,3.81.09h0l0,0a43.39,43.39,0,0,1,5,3.58l.28.23-.36,0a43.52,43.52,0,0,1-6.07-1m-2.79,3.14,0,0v0A15,15,0,0,0,46,47a9.19,9.19,0,0,0-1-1.8l-.39-.54.54.39A9.75,9.75,0,0,0,47,46a17.44,17.44,0,0,0,1.69.57h0l0,0A42.8,42.8,0,0,1,52,51.83l.18.33L51.83,52a42.51,42.51,0,0,1-5.21-3.24m-4-2.7.35.56a9.34,9.34,0,0,0,1.29,1.58,14.38,14.38,0,0,0,1.35,1.18l0,0v0a45.17,45.17,0,0,1,1,6.07l0,.36-.23-.28a44.64,44.64,0,0,1-3.58-5l0,0v0a15.29,15.29,0,0,0,.12-1.77,8.92,8.92,0,0,0-.21-2Zm-3.94,4.72v0a13.67,13.67,0,0,0,.79-1.59,9.12,9.12,0,0,0,.59-2l.11-.66.11.66a9.66,9.66,0,0,0,.58,2,13.91,13.91,0,0,0,.8,1.59v.07a43.9,43.9,0,0,1-1.39,6l-.11.36L40,56.78a43.47,43.47,0,0,1-1.39-6Zm-5,5.08,0-.36a43.63,43.63,0,0,1,1-6.07v0l0,0a12.88,12.88,0,0,0,1.34-1.17,8.88,8.88,0,0,0,1.29-1.58L37.7,46l-.15.64a9.07,9.07,0,0,0-.21,2,15.14,15.14,0,0,0,.12,1.77v.07a42.86,42.86,0,0,1-3.58,5Zm-2.1-9.22,0,0h0A15.52,15.52,0,0,0,33.28,46a8.91,8.91,0,0,0,1.8-1l.54-.39-.38.54a9.19,9.19,0,0,0-1,1.8,15.09,15.09,0,0,0-.57,1.69v0l0,0A42.51,42.51,0,0,1,28.45,52l-.33.18.18-.33a42.8,42.8,0,0,1,3.24-5.21m-1.82-3.79,0,0h0a15.14,15.14,0,0,0,1.77.12,8.86,8.86,0,0,0,2-.21l.65-.15-.56.35a9.38,9.38,0,0,0-1.59,1.3,15.56,15.56,0,0,0-1.17,1.34l0,0h0a43.4,43.4,0,0,1-6.06,1l-.36,0,.28-.23a43.39,43.39,0,0,1,5-3.58m-.24-4.19h0l0,0a13.67,13.67,0,0,0,1.59.79,9.12,9.12,0,0,0,2,.59l.66.11-.66.11a9.12,9.12,0,0,0-2,.59,12.26,12.26,0,0,0-1.59.79h-.07a44.79,44.79,0,0,1-6-1.39l-.35-.11.35-.11a43.63,43.63,0,0,1,6-1.39m1.38-4h0l0,0a15.56,15.56,0,0,0,1.17,1.34,8.83,8.83,0,0,0,1.59,1.29l.56.36-.65-.15a10.66,10.66,0,0,0-3.8-.09h0l0,0a42.22,42.22,0,0,1-5-3.57l-.28-.24.36,0a43.27,43.27,0,0,1,6.06,1m2.8-3.13,0,0v0a14.21,14.21,0,0,0,.57,1.68,9.14,9.14,0,0,0,1,1.8l.39.55-.54-.39a9.19,9.19,0,0,0-1.8-1,15.09,15.09,0,0,0-1.69-.57h0l0,0a42.8,42.8,0,0,1-3.24-5.21l-.18-.33.33.18a41.32,41.32,0,0,1,5.21,3.24m4,2.7-.36-.56a8.83,8.83,0,0,0-1.29-1.59,14.35,14.35,0,0,0-1.34-1.17l0,0v0a43.27,43.27,0,0,1-1-6.06l0-.36.23.28a42.86,42.86,0,0,1,3.58,5v.07a15,15,0,0,0-.12,1.77,8.92,8.92,0,0,0,.21,2Zm3.94-4.72v0a12.26,12.26,0,0,0-.79,1.59,9,9,0,0,0-.59,2l-.11.65L40,33.1a9.12,9.12,0,0,0-.59-2,13.7,13.7,0,0,0-.79-1.59v-.07a42.79,42.79,0,0,1,1.39-6l.11-.36.11.36a42.79,42.79,0,0,1,1.39,6Zm4.18,10.62a5.68,5.68,0,1,1-5.68-5.68,5.69,5.69,0,0,1,5.68,5.68m.82-15.7,0,.36a44.79,44.79,0,0,1-1,6.06v0l0,0a16,16,0,0,0-1.34,1.17,9.38,9.38,0,0,0-1.3,1.59l-.35.56.15-.65a8.92,8.92,0,0,0,.21-2,15.29,15.29,0,0,0-.12-1.77v0l0,0a42.86,42.86,0,0,1,3.58-5Zm2.1,9.22,0,0h0a15.09,15.09,0,0,0-1.69.57,9.19,9.19,0,0,0-1.8,1l-.54.39.39-.55a8.91,8.91,0,0,0,1-1.8,14.81,14.81,0,0,0,.57-1.68v0l0,0a41.32,41.32,0,0,1,5.21-3.24l.33-.18-.18.33a42.8,42.8,0,0,1-3.24,5.21m7.1,0-.28.24a42.22,42.22,0,0,1-5,3.57l0,0h0a10.72,10.72,0,0,0-3.81.09L46,37.7l.56-.36a8.83,8.83,0,0,0,1.59-1.29,14.39,14.39,0,0,0,1.16-1.34l0,0h0a45.17,45.17,0,0,1,6.07-1Z"/><path class="cls-3" d="M40.14,75.61a4.67,4.67,0,0,1,4.66,4.67H42.22a2.08,2.08,0,0,0-4.16,0H35.47a4.68,4.68,0,0,1,4.67-4.67"/><path class="cls-3" d="M40.14,4.66A4.67,4.67,0,0,1,35.47,0h2.59a2.08,2.08,0,0,0,4.16,0H44.8a4.66,4.66,0,0,1-4.66,4.66"/><path class="cls-3" d="M4.66,40.14A4.66,4.66,0,0,1,0,44.8H0V42.22H0a2.08,2.08,0,0,0,0-4.16H0V35.47H0a4.67,4.67,0,0,1,4.66,4.67"/><path class="cls-3" d="M78.2,40.14a2.08,2.08,0,0,0,2.08,2.08V44.8a4.67,4.67,0,1,1,0-9.33v2.59a2.08,2.08,0,0,0-2.08,2.08"/><path class="cls-3" d="M2.54,80.28H0V77.74H0a2.54,2.54,0,0,1,2.54,2.54"/><path class="cls-3" d="M0,59.75H0v3.53H0l.11.35a43.29,43.29,0,0,1,1.39,6v0l0,0A12.26,12.26,0,0,0,.7,71.28a8.8,8.8,0,0,0-.59,2L0,73.89H0v.71H0a5.69,5.69,0,0,1,5.68,5.69h.7L7,80.17a9.12,9.12,0,0,0,2-.59,14.54,14.54,0,0,0,1.59-.79l0,0h0a43.47,43.47,0,0,1,6,1.39l.36.11h3.53L19,79.74a56.21,56.21,0,0,0-6.64-1.82l-.27,0,.23-.15a52.92,52.92,0,0,0,5.44-4.23L19,72.42l-1.6.09a55.51,55.51,0,0,0-6.84.86l-.26,0,.15-.22a53.15,53.15,0,0,0,3.41-6l.7-1.45-1.45.7a54,54,0,0,0-6,3.41L6.85,70l.06-.26a54.54,54.54,0,0,0,.86-6.84l.09-1.61-1.08,1.2A53.9,53.9,0,0,0,2.56,68l-.15.23-.06-.27A53.53,53.53,0,0,0,.53,61.26ZM5.9,77.84l.56-.36a9.29,9.29,0,0,0,1.59-1.29,16,16,0,0,0,1.17-1.34l0,0h0a44.79,44.79,0,0,1,6.06-1l.36,0-.28.24a42.22,42.22,0,0,1-5,3.57l0,0h0a10.66,10.66,0,0,0-3.8.09ZM4.51,75.76l.39-.54a8.91,8.91,0,0,0,1-1.8,14.81,14.81,0,0,0,.57-1.68v0l0,0a42.67,42.67,0,0,1,5.21-3.25l.33-.17-.18.32A42.1,42.1,0,0,1,8.6,73.8l0,0h0a14.21,14.21,0,0,0-1.68.57,9,9,0,0,0-1.81,1ZM2.44,74.38l.15-.65a8.92,8.92,0,0,0,.21-2,15.59,15.59,0,0,0-.12-1.78v-.07a43.55,43.55,0,0,1,3.58-5l.24-.29,0,.37a43.27,43.27,0,0,1-1,6.06v0l0,0a14.35,14.35,0,0,0-1.34,1.17A8.83,8.83,0,0,0,2.8,73.82Z"/><path class="cls-3" d="M80.28,77.74v2.54H77.74a2.54,2.54,0,0,1,2.54-2.54"/><path class="cls-3" d="M59.75,80.28h3.53l.35-.11a43.29,43.29,0,0,1,6-1.39h0l0,0a13.67,13.67,0,0,0,1.59.79,9.12,9.12,0,0,0,2,.59l.65.11h.7a5.7,5.7,0,0,1,5.69-5.69v-.71l-.11-.64a9.12,9.12,0,0,0-.59-2,13.7,13.7,0,0,0-.79-1.59l0,0v0a43.29,43.29,0,0,1,1.39-6l.11-.35V59.75l-.54,1.52a55.48,55.48,0,0,0-1.82,6.64l0,.27L77.72,68a53.91,53.91,0,0,0-4.22-5.44l-1.08-1.2.09,1.61a54.33,54.33,0,0,0,.86,6.84l0,.26-.22-.15a54,54,0,0,0-6-3.41l-1.45-.7.7,1.45a52.39,52.39,0,0,0,3.41,6l.15.22-.26,0a55.28,55.28,0,0,0-6.84-.86l-1.61-.09,1.2,1.07A51.86,51.86,0,0,0,68,77.72l.23.15-.27,0a54.92,54.92,0,0,0-6.65,1.82Zm16.44-8a14.35,14.35,0,0,0-1.34-1.17l0,0v0a43.27,43.27,0,0,1-1-6.06l0-.37.24.29a41.72,41.72,0,0,1,3.57,5l0,0v0a15.3,15.3,0,0,0-.12,1.78,8.92,8.92,0,0,0,.21,2l.15.65-.36-.56a8.92,8.92,0,0,0-1.29-1.59m-2.77,2.18a14.21,14.21,0,0,0-1.68-.57h0l0,0a43.51,43.51,0,0,1-3.25-5.22l-.17-.32.33.17a43.45,43.45,0,0,1,5.21,3.25l0,0v0a14.21,14.21,0,0,0,.57,1.68,8.65,8.65,0,0,0,1,1.8l.39.55-.55-.39a8.91,8.91,0,0,0-1.8-1M64.86,74l-.29-.24.37,0a43.27,43.27,0,0,1,6.06,1h0l0,0a15.56,15.56,0,0,0,1.17,1.34,8.83,8.83,0,0,0,1.59,1.29l.56.36-.65-.15a10.71,10.71,0,0,0-3.81-.09h0l0,0a42.22,42.22,0,0,1-5-3.57"/><path class="cls-3" d="M80.28,2.54A2.54,2.54,0,0,1,77.74,0h2.54Z"/><path class="cls-3" d="M63.28,0H59.75l1.51.53a53.94,53.94,0,0,0,6.65,1.82l.27.06L68,2.56a56.56,56.56,0,0,0-5.44,4.22L61.32,7.85l1.6-.08a55.28,55.28,0,0,0,6.84-.86L70,6.85l-.15.23a52.39,52.39,0,0,0-3.41,6l-.7,1.44,1.45-.69a54,54,0,0,0,6-3.41l.22-.15,0,.26a54.33,54.33,0,0,0-.86,6.84L72.42,19l1.08-1.19a54.57,54.57,0,0,0,4.22-5.45l.15-.22,0,.26A52.79,52.79,0,0,0,79.75,19l.53,1.51V17l-.11-.35a43.47,43.47,0,0,1-1.39-6v-.07A13.67,13.67,0,0,0,79.58,9a9.12,9.12,0,0,0,.59-2l.11-.64V5.68A5.68,5.68,0,0,1,74.6,0h-.71l-.65.11a9.12,9.12,0,0,0-2,.59,12.26,12.26,0,0,0-1.59.79h-.07a43.29,43.29,0,0,1-6-1.39ZM73.77,15.7l0-.36a43.63,43.63,0,0,1,1-6.07v0l0,0a15.77,15.77,0,0,0,1.34-1.17,9.29,9.29,0,0,0,1.29-1.59l.36-.56-.15.64a9.07,9.07,0,0,0-.21,2,15,15,0,0,0,.12,1.77v0l0,0a41.72,41.72,0,0,1-3.57,5ZM71.68,6.48l0,0h0a16.31,16.31,0,0,0,1.68-.57,8.91,8.91,0,0,0,1.8-1l.54-.39-.38.54a9.19,9.19,0,0,0-1,1.8,15.09,15.09,0,0,0-.57,1.69v0l0,0a42.51,42.51,0,0,1-5.21,3.24l-.33.18.17-.33a44.25,44.25,0,0,1,3.25-5.21M69.86,2.69l0,0h0a15.3,15.3,0,0,0,1.78.12,8.86,8.86,0,0,0,2-.21l.65-.15-.56.35a9.38,9.38,0,0,0-1.59,1.3,15.56,15.56,0,0,0-1.17,1.34l0,0h0a43.4,43.4,0,0,1-6.06,1l-.37,0,.29-.23a44.64,44.64,0,0,1,5-3.58"/><path class="cls-3" d="M0,2.54H0V0H2.54A2.54,2.54,0,0,1,0,2.54"/><path class="cls-3" d="M19,.53,20.53,0H17l-.35.11a44,44,0,0,1-6,1.39h-.07A12.26,12.26,0,0,0,9,.7,9.12,9.12,0,0,0,7,.11L6.39,0H5.68A5.69,5.69,0,0,1,0,5.68H0V6.4H0L.11,7A9.12,9.12,0,0,0,.7,9a13.7,13.7,0,0,0,.79,1.59l0,0v0a42.46,42.46,0,0,1-1.39,6L0,17H0v3.54H0L.53,19a54.13,54.13,0,0,0,1.83-6.65l.05-.26.15.22a54.68,54.68,0,0,0,4.22,5.45L7.86,19l-.09-1.6a54.54,54.54,0,0,0-.86-6.84l-.06-.26.23.15a54,54,0,0,0,6,3.41l1.45.69-.7-1.45a54.3,54.3,0,0,0-3.41-6l-.15-.23.26.06a55.51,55.51,0,0,0,6.84.86L19,7.85l-1.2-1.07a53.19,53.19,0,0,0-5.44-4.22l-.23-.15.27-.06A52.56,52.56,0,0,0,19,.53M4.09,8.05A15.77,15.77,0,0,0,5.43,9.22l0,0v0a43.63,43.63,0,0,1,1,6.07l0,.36-.24-.28a44.64,44.64,0,0,1-3.58-5v-.07A15.29,15.29,0,0,0,2.8,8.58a8.92,8.92,0,0,0-.21-2L2.44,5.9l.36.56A8.83,8.83,0,0,0,4.09,8.05m1-3.15a8.82,8.82,0,0,0,1.79,1,17.44,17.44,0,0,0,1.69.57h0l0,0a44.25,44.25,0,0,1,3.25,5.21L12,12l-.33-.18A42.51,42.51,0,0,1,6.48,8.6l0,0v0a15,15,0,0,0-.57-1.69,9.19,9.19,0,0,0-1-1.8l-.39-.54ZM15.42,6.27l.28.23-.36,0a43.4,43.4,0,0,1-6.06-1h0l0,0A16,16,0,0,0,8.05,4.09a9.38,9.38,0,0,0-1.59-1.3L5.9,2.44l.65.15a10.9,10.9,0,0,0,3.8.09h0l0,0a44.64,44.64,0,0,1,5,3.58"/><line class="cls-4" x1="75.53" y1="35.47" x2="44.8" y2="4.75"/><line class="cls-4" x1="44.8" y1="75.53" x2="75.53" y2="44.8"/><line class="cls-4" x1="35.47" y1="4.75" x2="4.75" y2="35.47"/><line class="cls-4" x1="4.75" y1="44.8" x2="35.47" y2="75.53"/></g></pattern></defs><title>Asset 3</title><g id="Layer_2" data-name="Layer 2"><g id="Layer_1-2" data-name="Layer 1"><rect class="cls-5" width="2213.57" height="108.05"/></g></g></svg>